<svg width="344" height="373" viewBox="0 0 344 373" fill="none" xmlns="http://www.w3.org/2000/svg">
<path d="M0 186.5C0 289.501 83.4989 373 186.5 373C216.04 372.622 280.286 357.559 325.886 303.421C336.544 290.767 331.873 272.111 317.702 263.573C313.385 260.972 309.618 258.714 306.343 256.762C293.997 249.399 283.768 256.383 273.945 266.878C257.914 284.004 229.484 301.967 186.5 301.967C109.494 301.967 69.7871 249.511 69.7871 186.5C69.7871 123.489 117.916 68.5416 186.5 68.5416C223.196 68.5416 251.293 85.6451 269.158 102.694C281.138 114.126 299.617 119.229 313.989 111.002L320.68 107.171C333.662 99.7393 339.257 83.735 330.714 71.4551C308.449 39.4529 262.028 0 186.5 0C83.4989 0 0 83.4989 0 186.5Z" fill="white"/>
<path d="M119.948 191.672H94.6269C89.104 191.672 84.566 196.171 85.2172 201.656C88.2883 227.518 102.797 247.895 115.877 260.576C121.524 266.051 129.948 261.659 129.948 253.793V201.672C129.948 196.149 125.471 191.672 119.948 191.672Z" fill="#FCB203"/>
<path d="M139.574 193.249V269.834C139.574 273.347 141.396 276.65 144.555 278.186C156.176 283.833 169.62 286.425 179.161 287.419C184.564 287.982 188.906 283.592 188.906 278.16V234.629V193.249C188.906 187.726 184.429 183.249 178.906 183.249H149.574C144.051 183.249 139.574 187.726 139.574 193.249Z" fill="#FCB203"/>
<path d="M200.616 275.21L201.278 167.92C201.312 162.421 205.779 157.981 211.278 157.981H246.688C252.211 157.981 256.686 162.458 256.654 167.98C256.507 193.027 255.939 234.375 255.89 259.317C255.885 261.495 255.218 263.641 253.65 265.153C245.245 273.262 227.086 280.256 212.803 284.591C206.604 286.472 200.576 281.688 200.616 275.21Z" fill="#FCB203"/>
</svg>
